<?xml version="1.0" encoding="UTF-8" standalone="no"?>
<svg
   xmlns:dc="http://purl.org/dc/elements/1.1/"
   xmlns:cc="http://creativecommons.org/ns#"
   xmlns:rdf="http://www.w3.org/1999/02/22-rdf-syntax-ns#"
   xmlns:svg="http://www.w3.org/2000/svg"
   xmlns="http://www.w3.org/2000/svg"
   xmlns:sodipodi="http://sodipodi.sourceforge.net/DTD/sodipodi-0.dtd"
   xmlns:inkscape="http://www.inkscape.org/namespaces/inkscape"
   viewBox="0 0 841.9 87.3"
   version="1.1"
   id="svg10"
   sodipodi:docname="logo.svg"
   inkscape:version="0.92.2 (5c3e80d, 2017-08-06)"
   width="841.90002"
   height="87.299988">
  <metadata
     id="metadata16">
    <rdf:RDF>
      <cc:Work
         rdf:about="">
        <dc:format>image/svg+xml</dc:format>
        <dc:type
           rdf:resource="http://purl.org/dc/dcmitype/StillImage" />
        <dc:title />
      </cc:Work>
    </rdf:RDF>
  </metadata>
  <defs
     id="defs14" />
  <sodipodi:namedview
     pagecolor="#ffffff"
     bordercolor="#666666"
     borderopacity="1"
     objecttolerance="10"
     gridtolerance="10"
     guidetolerance="10"
     inkscape:pageopacity="0"
     inkscape:pageshadow="2"
     inkscape:window-width="1920"
     inkscape:window-height="1027"
     id="namedview12"
     showgrid="false"
     inkscape:zoom="1.9283966"
     inkscape:cx="447.90899"
     inkscape:cy="-57.083499"
     inkscape:window-x="-8"
     inkscape:window-y="22"
     inkscape:window-maximized="1"
     inkscape:current-layer="text15" />
  <g
     aria-label="myMPDB"
     transform="matrix(0.93974955,0,0,1.0641133,0,-507.99979)"
     style="font-style:normal;font-weight:normal;font-size:138.24072266px;line-height:1.25;font-family:sans-serif;letter-spacing:0px;word-spacing:0px;fill:#ffffff;fill-opacity:1;stroke:none;stroke-width:3.45601821"
     id="text20">
    <path
       d="m 248.00029,538.80902 h 15.63652 v -25.7276 c 0,-1.08325 0.10581,-2.34707 0.63388,-3.43035 0.95086,-2.25678 3.38086,-4.96496 7.50132,-4.96496 5.07127,0 7.39562,3.79143 7.39562,9.38833 v 24.73458 h 15.63646 v -25.81783 c 0,-1.08331 0.21145,-2.52766 0.63394,-3.52066 1.0565,-2.61789 3.69781,-4.78442 7.39561,-4.78442 5.17695,0 7.60697,3.70118 7.60697,10.1105 v 24.01241 h 15.63645 v -25.9984 c 0,-13.17975 -7.50125,-19.1377 -17.43256,-19.1377 -3.80348,0 -6.97303,0.72216 -9.82562,2.16652 -2.43,1.26382 -4.75437,3.06926 -6.6561,5.32605 h -0.21117 c -2.21871,-4.60389 -7.50132,-7.49257 -14.15737,-7.49257 -8.87477,0 -13.4178,4.1525 -15.63649,6.95097 h -0.31711 l -0.73958,-5.95801 h -13.52337 c 0.21118,3.88171 0.42263,8.57587 0.42263,14.08246 z"
       style="font-style:normal;font-variant:normal;font-weight:bold;font-stretch:normal;font-family:'Myriad Pro';-inkscape-font-specification:'Myriad Pro Bold';letter-spacing:-5.51639271px;fill:#ffd42a;stroke-width:2.44149494"
       id="path8"
       inkscape:connector-curvature="0" />
    <path
       d="m 326.70458,494.66588 18.9117,40.35171 c 0.63391,1.08325 0.73958,1.80547 0.73958,2.25679 0,0.63191 -0.31714,1.35407 -0.84522,1.98601 -1.5848,2.25678 -4.22611,4.4233 -6.65607,5.50661 -2.43,1.26382 -4.96566,2.07624 -6.97302,2.34704 l 3.38086,11.64514 c 4.01476,-0.45138 9.93125,-1.89568 15.53081,-6.04827 5.81086,-4.42334 10.77651,-11.46454 18.17213,-28.97737 l 12.04435,-29.06766 h -17.22129 l -6.33912,21.66532 c -0.73958,2.52766 -1.58475,5.86772 -2.32434,8.21479 h -0.31678 c -0.63387,-2.34707 -1.69044,-5.59687 -2.53566,-8.21479 l -7.71258,-21.66532 z"
       style="font-style:normal;font-variant:normal;font-weight:bold;font-stretch:normal;font-family:'Myriad Pro';-inkscape-font-specification:'Myriad Pro Bold';letter-spacing:-5.51639271px;fill:#ffd42a;stroke-width:2.44149494"
       id="path10"
       inkscape:connector-curvature="0" />
    <path
       d="m 445.40803,538.80902 h 15.74216 l -3.90915,-60.84347 h -21.02471 l -7.60694,20.22096 c -2.32435,6.7704 -4.75431,14.80468 -6.76173,21.84588 h -0.31712 c -1.5848,-7.13149 -3.8035,-14.7144 -6.02216,-21.7556 l -6.97305,-20.31124 h -21.44734 l -4.543,60.84347 h 14.89691 l 1.26779,-23.10971 c 0.52829,-7.58285 0.84522,-16.97118 1.26784,-25.18594 h 0.21145 c 1.69046,7.94396 4.12043,16.6101 6.44478,23.74159 l 7.60693,23.56104 h 12.57259 l 8.66344,-23.74156 c 2.74695,-7.13152 5.70521,-15.79765 7.92389,-23.56107 h 0.31711 c 0,8.8467 0.31714,17.69332 0.63393,25.00543 z"
       style="font-style:normal;font-variant:normal;font-weight:bold;font-stretch:normal;font-family:'Myriad Pro';-inkscape-font-specification:'Myriad Pro Bold';letter-spacing:-5.51639271px;fill:#ffd42a;stroke-width:2.44149494"
       id="path12"
       inkscape:connector-curvature="0" />
    <path
       d="m 469.26411,538.80902 h 15.95347 v -21.7556 c 1.4791,0.18051 3.38083,0.27074 5.4939,0.27074 9.50863,0 17.64383,-1.98601 23.13778,-6.40932 4.22608,-3.43034 6.5504,-8.48559 6.5504,-14.44355 0,-5.95798 -3.06393,-11.01325 -7.60694,-14.08249 -4.75434,-3.24979 -11.83302,-4.8747 -21.76431,-4.8747 -9.82564,0 -16.79864,0.54163 -21.7643,1.26382 z m 15.95347,-50.37192 c 1.16215,-0.27072 3.38083,-0.54165 6.65605,-0.54165 8.02956,0 12.57258,3.34012 12.57258,8.93695 0,6.22882 -5.2826,9.92996 -13.84043,9.92996 -2.32429,0 -4.01476,-0.0904 -5.3882,-0.36099 z"
       style="font-style:normal;font-variant:normal;font-weight:bold;font-stretch:normal;font-family:'Myriad Pro';-inkscape-font-specification:'Myriad Pro Bold';letter-spacing:-5.51639271px;fill:#ffd42a;stroke-width:2.44149494"
       id="path14"
       inkscape:connector-curvature="0" />
    <path
       d="m 526.33455,538.53819 c 4.01477,0.45134 9.93128,0.90274 18.27779,0.90274 13.94603,0 25.35647,-2.52764 32.85774,-7.85369 6.86737,-4.96498 11.833,-12.9992 11.833,-24.64432 0,-10.74237 -4.64867,-18.23497 -12.04429,-22.92913 -6.86742,-4.42336 -15.63649,-6.4996 -29.15995,-6.4996 -8.1352,0 -15.8478,0.45136 -21.76429,1.26382 z m 16.16473,-49.92052 c 1.37349,-0.27075 3.69781,-0.54162 7.29,-0.54162 13.84041,0 22.50383,6.68011 22.39823,19.31824 0,14.5338 -9.50871,21.39449 -24.08867,21.30421 -2.00739,0 -4.22607,0 -5.59956,-0.27072 z"
       style="font-style:normal;font-variant:normal;font-weight:bold;font-stretch:normal;font-family:'Myriad Pro';-inkscape-font-specification:'Myriad Pro Bold';letter-spacing:-5.51639271px;fill:#ffd42a;stroke-width:2.44149494"
       id="path16"
       inkscape:connector-curvature="0" />
    <path
       d="m 595.57967,538.53819 c 3.59216,0.45134 9.50866,0.90274 17.43258,0.90274 14.15735,0 22.82082,-1.98599 27.99774,-5.50665 4.43739,-3.06923 7.39567,-7.40228 7.39567,-12.90892 0,-7.85366 -6.02217,-13.08947 -14.15737,-14.98515 v -0.18051 c 8.02952,-2.52761 11.72735,-7.58286 11.72735,-12.99918 0,-5.50665 -3.59215,-9.65915 -8.55783,-11.91599 -5.1769,-2.61785 -11.19907,-3.43029 -21.02471,-3.43029 -8.02956,0 -16.58732,0.5416 -20.81343,1.26382 z m 15.95347,-50.64274 c 1.37343,-0.18051 3.38083,-0.36098 6.86733,-0.36098 7.29,0 11.41044,2.43733 11.41044,7.0412 0,4.51365 -4.54304,7.49263 -12.99519,7.49263 h -5.28258 z m 0,24.01243 h 5.4939 c 8.02952,0 14.47431,2.43736 14.47431,8.57588 0,6.40932 -6.44479,8.7564 -13.73477,8.7564 -2.74694,0 -4.64867,0 -6.23344,-0.18053 z"
       style="font-style:normal;font-variant:normal;font-weight:bold;font-stretch:normal;font-family:'Myriad Pro';-inkscape-font-specification:'Myriad Pro Bold';letter-spacing:-5.51639271px;fill:#ffd42a;stroke-width:2.44149494"
       id="path18"
       inkscape:connector-curvature="0" />
    <g
       aria-label="&lt;                     &gt;"
       transform="scale(1.0641133,0.93974955)"
       style="font-style:normal;font-weight:normal;font-size:72.42826843px;line-height:1.25;font-family:sans-serif;letter-spacing:0px;word-spacing:0px;fill:#ffd42a;fill-opacity:1;stroke:none;stroke-width:6.25783491"
       id="text15">
      <path
         d="m 165.68685,554.42574 49.94876,23.20537 v -11.03036 l -37.77376,-16.54552 v -0.20813 l 37.77376,-16.54552 v -11.03036 l -49.94876,23.20537 z"
         style="font-style:normal;font-variant:normal;font-weight:bold;font-stretch:normal;font-size:93.33149719px;font-family:'Myriad Pro';-inkscape-font-specification:'Myriad Pro Bold';fill:#ffd42a;stroke-width:6.9771719"
         id="path24"
         inkscape:connector-curvature="0" />
      <path
         d="M 671.88846,545.16441 621.9397,522.27122 v 11.03036 l 38.60624,16.54552 v 0.20813 l -38.60624,16.54552 v 11.03036 l 49.94876,-22.89319 z"
         style="font-style:normal;font-variant:normal;font-weight:bold;font-stretch:normal;font-size:93.33149719px;font-family:'Myriad Pro';-inkscape-font-specification:'Myriad Pro Bold';fill:#ffd42a;stroke-width:6.9771719"
         id="path26"
         inkscape:connector-curvature="0" />
    </g>
  </g>
</svg>
